HIERARCHY
ROOT hip
{
	OFFSET 0.000000 0.000000 0.000000 
	CHANNELS 6 Xposition Yposition Zposition Xrotation Zrotation Yrotation
	JOINT abdomen
	{
		OFFSET 0.000000 3.402643 0.000000 
		CHANNELS 3 Xrotation Zrotation Yrotation
		JOINT chest
		{
			OFFSET 0.000000 8.438565 -0.680529 
			CHANNELS 3 Xrotation Zrotation Yrotation
			JOINT neck
			{
				OFFSET 0.000000 10.207942 -0.272212 
				CHANNELS 3 Xrotation Zrotation Yrotation
				JOINT head
				{
					OFFSET 0.000000 3.130431 0.000000 
					CHANNELS 3 Xrotation Zrotation Yrotation
					End Site
					{
						OFFSET 0.000000 3.130435 0.000000 
					}
				}
			}
			JOINT lCollar
			{
				OFFSET 3.470700 6.669187 -0.816635 
				CHANNELS 3 Yrotation Zrotation Xrotation
				JOINT lShldr
				{
					OFFSET 3.198488 0.000000 0.000000 
					CHANNELS 3 Zrotation Yrotation Xrotation
					JOINT lForeArm
					{
						OFFSET 10.139888 0.000000 0.000000 
						CHANNELS 3 Yrotation Zrotation Xrotation
						JOINT lHand
						{
							OFFSET 8.370511 0.000000 0.000000 
							CHANNELS 3 Zrotation Yrotation Xrotation
							End Site
							{
								OFFSET 4.083176 0.000000 0.000000 
							}
						}
					}
				}
			}
			JOINT rCollar
			{
				OFFSET -3.470700 6.669187 -0.816635 
				CHANNELS 3 Yrotation Zrotation Xrotation
				JOINT rShldr
				{
					OFFSET -3.198488 0.000000 0.000000 
					CHANNELS 3 Zrotation Yrotation Xrotation
					JOINT rForeArm
					{
						OFFSET -10.139888 0.000000 0.000000 
						CHANNELS 3 Yrotation Zrotation Xrotation
						JOINT rHand
						{
							OFFSET -8.370511 0.000000 0.000000 
							CHANNELS 3 Zrotation Yrotation Xrotation
							End Site
							{
								OFFSET -4.083176 0.000000 0.000000 
							}
						}
					}
				}
			}
		}
	}
	JOINT lThigh
	{
		OFFSET 5.308129 -1.633274 1.361059 
		CHANNELS 3 Xrotation Zrotation Yrotation
		JOINT lShin
		{
			OFFSET -2.041588 -20.007561 0.000000 
			CHANNELS 3 Xrotation Zrotation Yrotation
			JOINT lFoot
			{
				OFFSET 0.000000 -19.190928 -1.224953 
				CHANNELS 3 Xrotation Yrotation Zrotation
				End Site
				{
					OFFSET 0.000000 -2.449906 4.627600 
				}
			}
		}
	}
	JOINT rThigh
	{
		OFFSET -5.308129 -1.633274 1.361059 
		CHANNELS 3 Xrotation Zrotation Yrotation
		JOINT rShin
		{
			OFFSET 2.041588 -20.007561 0.000000 
			CHANNELS 3 Xrotation Zrotation Yrotation
			JOINT rFoot
			{
				OFFSET 0.000000 -19.190928 -1.224953 
				CHANNELS 3 Xrotation Yrotation Zrotation
				End Site
				{
					OFFSET 0.000000 -2.449906 4.627600 
				}
			}
		}
	}
}
MOTION
Frames: 8
Frame Time: 0.016667
-0.143768 52.256561 -6.476448 -7.246403 3.628221 -9.785411 37.117695 -5.651590 -6.166628 2.761757 4.306342 -0.997858 -16.914469 -0.351418 0.092675 5.785138 -5.978715 10.712642 -11.562246 -1.404953 -0.079706 -67.182793 24.422232 -32.175507 -131.472473 -5.000000 -30.048506 -2.421050 0.193973 -7.729633 13.867673 6.868332 -0.355345 59.972790 -15.585174 -24.482260 117.286736 5.000000 -16.215498 22.677193 -17.973467 6.849179 7.706327 2.293752 12.600419 60.163830 -1.398940 -2.367928 6.440496 3.999445 -5.846028 -6.059026 -5.288768 3.085340 25.664015 7.544139 4.123678 -8.384118 -3.784853 2.492983 
-0.225955 51.930218 -4.674179 -7.514275 3.209669 -10.260159 37.488098 -5.515844 -5.501895 2.594124 4.326151 -0.293205 -16.868746 -0.985198 0.277431 6.145731 -6.190696 10.186275 -11.056426 -2.448566 -0.133866 -67.702927 25.719660 -34.107216 -129.142197 -5.000000 -28.964712 -5.357193 -3.337611 -4.418910 14.300923 7.414466 -0.383634 59.869141 -13.391517 -22.655281 117.695511 5.000000 -15.547292 22.051283 -17.353510 5.736121 4.519820 3.564093 14.162342 64.442711 -0.686734 -1.240535 4.074790 4.694316 -5.429910 -3.896044 -4.950693 3.025384 27.351734 7.875591 4.603708 -12.044406 -4.120420 -0.460327 
-0.322784 51.581730 -2.580434 -7.229630 2.328607 -9.832294 37.670513 -4.579784 -4.582144 2.311932 4.355387 0.518788 -17.111235 -1.780177 0.506530 6.479891 -6.289938 8.969965 -10.434504 -3.521454 -0.189252 -68.186897 26.813572 -35.676716 -126.160263 -5.000000 -27.261992 -7.393961 -6.276422 -2.252831 14.711703 7.324216 -0.388458 59.887070 -11.100021 -20.111996 117.909599 5.000000 -14.437055 21.939135 -16.140045 4.111584 -0.263967 5.572170 14.472552 68.247360 -0.228377 -0.201957 0.773501 4.657551 -4.126466 -1.434722 -4.129936 2.382679 28.291149 8.007689 4.847126 -15.414134 -4.551664 -2.293731 
-0.429374 51.218475 -0.292365 -6.591391 1.129040 -8.829668 37.746212 -3.114874 -3.468101 1.953654 4.384225 1.399827 -17.546541 -2.697691 0.773974 6.790205 -6.315991 7.299677 -9.735548 -4.604105 -0.245075 -68.650543 27.764872 -37.003143 -122.615021 -5.000000 -25.011646 -8.756374 -8.940430 -0.865770 15.128263 6.817021 -0.362178 60.050026 -8.751164 -17.098818 118.050735 5.000000 -13.052790 22.109913 -14.540299 2.179146 -6.211037 7.998007 13.753678 71.711067 0.025003 0.793690 -2.948933 4.143556 -2.261343 1.178199 -2.959697 1.363893 28.787079 8.011929 4.942037 -18.505924 -5.012297 -3.398699 
-0.519556 50.904324 2.016716 -5.947266 0.000000 -7.753906 37.732563 -1.727598 -2.301657 1.663048 4.334536 2.280085 -17.967674 -3.557180 1.033191 7.076272 -6.202604 5.441699 -9.113743 -5.473730 -0.281105 -69.132286 28.827253 -38.327297 -119.435898 -5.000000 -22.941284 -9.992762 -11.276911 -0.001227 15.484392 5.948994 -0.316137 60.524445 -6.734296 -14.456558 118.150620 5.000000 -11.742077 22.333014 -13.118365 0.350151 -12.123896 10.022849 12.713445 74.262215 0.208124 1.667764 -6.162175 3.627917 -0.847904 3.888802 -1.880492 0.462571 28.906679 8.061356 4.968392 -21.461660 -5.423101 -4.100520 
-0.544106 50.786575 4.409835 -5.251513 -0.815329 -6.319107 37.349384 -0.681907 -0.940049 1.595171 3.981915 3.149845 -18.301771 -4.224952 1.254434 7.284589 -5.579235 2.816031 -8.840304 -5.473730 -0.281105 -69.637146 30.393513 -39.598129 -118.608818 -5.000000 -22.690641 -10.171855 -12.584074 -1.387698 15.610807 3.676636 -0.197729 61.778023 -6.010495 -13.208699 117.720520 5.000000 -10.817941 23.088100 -12.370489 -1.059000 -17.709208 10.619882 11.232224 73.194046 0.315436 1.930137 -7.306804 3.696026 -1.061486 6.990099 -1.191100 -0.194524 27.642942 8.260669 4.820401 -23.495235 -5.833493 -3.130922 
-0.568653 50.668831 6.802940 -4.574884 -1.654082 -4.904524 36.991508 0.360257 0.413380 1.530375 3.619375 4.019007 -18.629879 -4.882965 1.473684 7.453784 -4.951143 0.195427 -8.576584 -5.463976 -0.280601 -70.187576 31.938913 -40.908482 -117.747581 -5.000000 -22.382942 -10.292390 -13.901997 -2.795346 15.751681 1.394506 -0.079273 63.051006 -5.319938 -11.940715 117.332825 5.000000 -9.920609 23.816816 -11.595119 -2.445342 -23.332600 11.088775 9.685324 72.156197 0.423329 2.217185 -8.394388 3.718438 -1.266105 10.065555 -0.468562 -0.821812 26.403692 8.441546 4.677798 -25.516968 -6.313008 -2.186228 
-0.610528 50.813931 9.399565 -4.437103 -1.598794 -3.370552 36.636654 0.074894 1.573088 1.393962 3.170106 4.154784 -18.494923 -5.216364 1.554478 7.958499 -4.088046 -2.457463 -8.477332 -5.132391 -0.263478 -69.907616 34.060196 -41.653179 -119.245079 -5.000000 -23.890711 -10.223473 -14.426883 -3.210633 15.867759 -0.360983 0.011462 63.894207 -6.056442 -12.278958 116.395470 5.000000 -9.726653 24.152744 -12.073178 -1.896454 -26.196733 10.290580 8.600218 67.101997 -0.259077 0.249892 -8.933402 4.634857 -2.336529 13.795292 -0.127299 -2.163963 24.383415 7.800620 4.016841 -26.064301 -6.610380 -0.421014 
